<mxfile host="Electron" agent="Mozilla/5.0 (Windows NT 10.0; Win64; x64) AppleWebKit/537.36 (KHTML, like Gecko) draw.io/24.7.8 Chrome/128.0.6613.36 Electron/32.0.1 Safari/537.36" version="24.7.8">
  <diagram name="第 1 页" id="18x5rWIfHubSDKr9XWaG">
    <mxGraphModel dx="794" dy="511" grid="1" gridSize="10" guides="1" tooltips="1" connect="1" arrows="1" fold="1" page="1" pageScale="1" pageWidth="827" pageHeight="1169" math="1" shadow="0">
      <root>
        <mxCell id="0" />
        <mxCell id="1" parent="0" />
        <mxCell id="EU7ocYeRtq7hR_r5uH1r-30" value="" style="endArrow=none;html=1;rounded=0;strokeColor=#FF8000;" edge="1" parent="1">
          <mxGeometry width="50" height="50" relative="1" as="geometry">
            <mxPoint x="660" y="290" as="sourcePoint" />
            <mxPoint x="460" y="340" as="targetPoint" />
          </mxGeometry>
        </mxCell>
        <mxCell id="EU7ocYeRtq7hR_r5uH1r-31" value="" style="endArrow=none;html=1;rounded=0;strokeColor=#FF8000;" edge="1" parent="1">
          <mxGeometry width="50" height="50" relative="1" as="geometry">
            <mxPoint x="740" y="390" as="sourcePoint" />
            <mxPoint x="540" y="440" as="targetPoint" />
          </mxGeometry>
        </mxCell>
        <mxCell id="EU7ocYeRtq7hR_r5uH1r-32" value="" style="endArrow=none;html=1;rounded=0;strokeColor=#FF8000;" edge="1" parent="1">
          <mxGeometry width="50" height="50" relative="1" as="geometry">
            <mxPoint x="740" y="390" as="sourcePoint" />
            <mxPoint x="660" y="290" as="targetPoint" />
          </mxGeometry>
        </mxCell>
        <mxCell id="EU7ocYeRtq7hR_r5uH1r-33" value="" style="endArrow=none;html=1;rounded=0;strokeColor=#FF8000;" edge="1" parent="1">
          <mxGeometry width="50" height="50" relative="1" as="geometry">
            <mxPoint x="540" y="440" as="sourcePoint" />
            <mxPoint x="460" y="340" as="targetPoint" />
          </mxGeometry>
        </mxCell>
        <mxCell id="EU7ocYeRtq7hR_r5uH1r-1" value="" style="endArrow=classic;html=1;rounded=0;" edge="1" parent="1">
          <mxGeometry width="50" height="50" relative="1" as="geometry">
            <mxPoint x="280" y="320" as="sourcePoint" />
            <mxPoint x="600" y="240" as="targetPoint" />
          </mxGeometry>
        </mxCell>
        <mxCell id="EU7ocYeRtq7hR_r5uH1r-2" value="" style="endArrow=classic;html=1;rounded=0;" edge="1" parent="1">
          <mxGeometry width="50" height="50" relative="1" as="geometry">
            <mxPoint x="280" y="160" as="sourcePoint" />
            <mxPoint x="600" y="80" as="targetPoint" />
          </mxGeometry>
        </mxCell>
        <mxCell id="EU7ocYeRtq7hR_r5uH1r-4" value="" style="endArrow=classic;html=1;rounded=0;strokeColor=#FF0000;strokeWidth=2;exitX=0.367;exitY=0.967;exitDx=0;exitDy=0;exitPerimeter=0;" edge="1" parent="1">
          <mxGeometry width="50" height="50" relative="1" as="geometry">
            <mxPoint x="440" y="120" as="sourcePoint" />
            <mxPoint x="480" y="110" as="targetPoint" />
          </mxGeometry>
        </mxCell>
        <mxCell id="EU7ocYeRtq7hR_r5uH1r-6" value="" style="endArrow=none;html=1;rounded=0;" edge="1" parent="1">
          <mxGeometry width="50" height="50" relative="1" as="geometry">
            <mxPoint x="460" y="290" as="sourcePoint" />
            <mxPoint x="440" y="260" as="targetPoint" />
            <Array as="points">
              <mxPoint x="460" y="270" />
            </Array>
          </mxGeometry>
        </mxCell>
        <mxCell id="EU7ocYeRtq7hR_r5uH1r-7" value="" style="endArrow=none;html=1;rounded=0;entryX=0.289;entryY=0.881;entryDx=0;entryDy=0;entryPerimeter=0;exitX=0.372;exitY=0.325;exitDx=0;exitDy=0;exitPerimeter=0;strokeColor=#000000;" edge="1" parent="1" source="EU7ocYeRtq7hR_r5uH1r-10">
          <mxGeometry width="50" height="50" relative="1" as="geometry">
            <mxPoint x="190" y="280" as="sourcePoint" />
            <mxPoint x="440" y="120" as="targetPoint" />
          </mxGeometry>
        </mxCell>
        <mxCell id="EU7ocYeRtq7hR_r5uH1r-8" value="" style="endArrow=none;html=1;rounded=0;entryX=0.122;entryY=0.408;entryDx=0;entryDy=0;entryPerimeter=0;" edge="1" parent="1" target="EU7ocYeRtq7hR_r5uH1r-10">
          <mxGeometry width="50" height="50" relative="1" as="geometry">
            <mxPoint x="440" y="280" as="sourcePoint" />
            <mxPoint x="500" y="340" as="targetPoint" />
          </mxGeometry>
        </mxCell>
        <mxCell id="EU7ocYeRtq7hR_r5uH1r-9" value="" style="endArrow=none;html=1;rounded=0;" edge="1" parent="1">
          <mxGeometry width="50" height="50" relative="1" as="geometry">
            <mxPoint x="440" y="280" as="sourcePoint" />
            <mxPoint x="440" y="120" as="targetPoint" />
          </mxGeometry>
        </mxCell>
        <mxCell id="EU7ocYeRtq7hR_r5uH1r-10" value="" style="shape=waypoint;sketch=0;fillStyle=solid;size=6;pointerEvents=1;points=[];fillColor=none;resizable=0;rotatable=0;perimeter=centerPerimeter;snapToPoint=1;" vertex="1" parent="1">
          <mxGeometry x="590" y="350" width="20" height="20" as="geometry" />
        </mxCell>
        <mxCell id="EU7ocYeRtq7hR_r5uH1r-13" value="sensor path" style="text;html=1;align=center;verticalAlign=middle;whiteSpace=wrap;rounded=0;" vertex="1" parent="1">
          <mxGeometry x="600" y="70" width="80" height="20" as="geometry" />
        </mxCell>
        <mxCell id="EU7ocYeRtq7hR_r5uH1r-14" value="radar track" style="text;html=1;align=center;verticalAlign=middle;whiteSpace=wrap;rounded=0;" vertex="1" parent="1">
          <mxGeometry x="600" y="230" width="80" height="20" as="geometry" />
        </mxCell>
        <mxCell id="EU7ocYeRtq7hR_r5uH1r-16" value="&lt;font color=&quot;#0000ff&quot;&gt;\(R_0\)&lt;/font&gt;" style="text;html=1;align=center;verticalAlign=middle;whiteSpace=wrap;rounded=0;" vertex="1" parent="1">
          <mxGeometry x="540" y="210" width="20" height="20" as="geometry" />
        </mxCell>
        <mxCell id="EU7ocYeRtq7hR_r5uH1r-17" value="&lt;font color=&quot;#0000ff&quot;&gt;closest slant range&lt;/font&gt;" style="text;html=1;align=center;verticalAlign=middle;whiteSpace=wrap;rounded=0;" vertex="1" parent="1">
          <mxGeometry x="560" y="200" width="110" height="20" as="geometry" />
        </mxCell>
        <mxCell id="EU7ocYeRtq7hR_r5uH1r-18" value="" style="endArrow=classic;html=1;rounded=0;strokeColor=#FF0000;strokeWidth=2;" edge="1" parent="1">
          <mxGeometry width="50" height="50" relative="1" as="geometry">
            <mxPoint x="440" y="120" as="sourcePoint" />
            <mxPoint x="460" y="150" as="targetPoint" />
          </mxGeometry>
        </mxCell>
        <mxCell id="EU7ocYeRtq7hR_r5uH1r-19" value="&lt;font color=&quot;#ff0000&quot;&gt;azimuth direction&lt;/font&gt;" style="text;html=1;align=center;verticalAlign=middle;whiteSpace=wrap;rounded=0;" vertex="1" parent="1">
          <mxGeometry x="480" y="110" width="100" height="20" as="geometry" />
        </mxCell>
        <mxCell id="EU7ocYeRtq7hR_r5uH1r-21" value="&lt;font color=&quot;#ff0000&quot;&gt;range direction&lt;/font&gt;" style="text;html=1;align=center;verticalAlign=middle;whiteSpace=wrap;rounded=0;" vertex="1" parent="1">
          <mxGeometry x="460" y="140" width="100" height="20" as="geometry" />
        </mxCell>
        <mxCell id="EU7ocYeRtq7hR_r5uH1r-22" value="scene center" style="text;html=1;align=center;verticalAlign=middle;whiteSpace=wrap;rounded=0;" vertex="1" parent="1">
          <mxGeometry x="600" y="350" width="90" height="20" as="geometry" />
        </mxCell>
        <mxCell id="EU7ocYeRtq7hR_r5uH1r-23" value="" style="endArrow=none;html=1;rounded=0;curved=1;strokeColor=#0000FF;entryX=0;entryY=0;entryDx=0;entryDy=0;" edge="1" parent="1" target="EU7ocYeRtq7hR_r5uH1r-16">
          <mxGeometry width="50" height="50" relative="1" as="geometry">
            <mxPoint x="440" y="120" as="sourcePoint" />
            <mxPoint x="530" y="210" as="targetPoint" />
            <Array as="points">
              <mxPoint x="500" y="150" />
            </Array>
          </mxGeometry>
        </mxCell>
        <mxCell id="EU7ocYeRtq7hR_r5uH1r-24" value="" style="endArrow=none;html=1;rounded=0;exitX=0.2;exitY=0.467;exitDx=0;exitDy=0;exitPerimeter=0;strokeColor=#0000FF;entryX=0.75;entryY=1;entryDx=0;entryDy=0;curved=1;" edge="1" parent="1" source="EU7ocYeRtq7hR_r5uH1r-10" target="EU7ocYeRtq7hR_r5uH1r-16">
          <mxGeometry width="50" height="50" relative="1" as="geometry">
            <mxPoint x="480" y="260" as="sourcePoint" />
            <mxPoint x="640" y="270" as="targetPoint" />
            <Array as="points">
              <mxPoint x="590" y="290" />
            </Array>
          </mxGeometry>
        </mxCell>
      </root>
    </mxGraphModel>
  </diagram>
</mxfile>
